
	<svg xmlns="http://www.w3.org/2000/svg" xmlns:xlink="http://www.w3.org/1999/xlink" version="1.1" width="256" height="256" viewBox="0 0 100 100">


		<defs>
			false
			
	<linearGradient id="background-gradient" x1="0" y1="0" y2="1" x2="0" >
		<stop stop-color="#fff" offset="0%"/>
		<stop stop-color="#000" offset="100%"/>
	</linearGradient>

			
			
	<filter id="drop-shadow">
		<feGaussianBlur in="SourceAlpha" stdDeviation="0" />
		<feComponentTransfer>
			<feFuncA type="linear" slope="0.9"/>
		</feComponentTransfer>
		<feOffset dx="-0.9999999999999999" dy="1" result="offsetblur" />
		<feFlood flood-color="#000" />
		<feComposite in2="offsetblur" operator="in" />
		<feMerge>
			<feMergeNode />
			<feMergeNode in="SourceGraphic" />
		</feMerge>
	</filter>

			<g transform="scale(0.3737302148697818) translate(-15.731279373168945 -0.8480453491210938)" id="picture"><path d="M209.126 111.786c2.094-2.346 6.48-1.907 8.978 1.13l61.417 74.658c2.29 2.784 2.459 7.213.174 9.772l-4 4.477c-1.142 1.28-2.71 1.82-4.304 1.66-1.595-.16-3.016-.998-4.057-2.263l-61.418-74.658c-1.249-1.519-1.918-3.444-1.998-5.542-.08-2.098.447-3.904 1.4-4.97l3.808-4.264zM270 198.234c.416.507.615.527 1.213.586s1.187-.113 1.568-.54l4-4.477c.76-.853.907-2.232.074-3.244l-49.55-60.233-6.856 7.676L270 198.234zm-61.418-74.657l8.953 10.882 6.855-7.676-8.952-10.882c-.833-1.012-2.627-1.192-3.398-.572l-3.808 4.264c-.381.427-.554 1.106-.527 1.806.235.952.46 1.672.877 2.178zm-27.021 4.73l3.986.399-.178-4.663c-.053-1.4.709-2.252 1.905-2.133s2.028 1.132 2.082 2.531l.177 4.663 3.986.399c1.196.12 2.03 1.132 2.082 2.53s-.708 2.252-1.904 2.133l-3.986-.399.177 4.663c.054 1.399-.708 2.252-1.904 2.132s-2.028-1.132-2.082-2.53l-.177-4.664-3.987-.398c-1.196-.12-2.028-1.132-2.082-2.53s.709-2.253 1.905-2.133zm10.804-29.113c.053 1.399-.709 2.251-1.905 2.132s-2.028-1.132-2.082-2.531l-.177-4.663-3.986-.399c-1.196-.12-2.03-1.131-2.082-2.53s.708-2.252 1.904-2.132l3.986.398-.178-4.663c-.053-1.399.709-2.252 1.905-2.132s2.028 1.132 2.082 2.53l.177 4.664 3.987.398c1.195.12 2.028 1.132 2.082 2.531s-.709 2.252-1.905 2.132l-3.986-.398.178 4.663zm34.702-1.175l-3.987-.4.178 4.664c.053 1.399-.708 2.252-1.904 2.132s-2.029-1.132-2.082-2.53l-.178-4.664-3.986-.398c-1.196-.12-2.029-1.132-2.082-2.531s.708-2.252 1.904-2.132l3.986.398-.177-4.663c-.053-1.398.708-2.251 1.904-2.132s2.029 1.132 2.082 2.531l.178 4.663 3.986.399c1.196.12 2.029 1.131 2.082 2.53s-.709 2.252-1.904 2.133zM44.8 215.627c-1.6-.823-2.6-2.47-2.8-4.94-.2-2.197-1.4-4.118-3.2-5.765.6-4.393 1-8.785 1.8-13.451.6-4.393 1.4-9.608 2.4-15.373 1-5.765 2.2-12.353 3.6-20.04s3.4-17.019 5.6-27.725h-5c-1.2 0-2.4.275-3.4.55-.2-.275-.4-.824-.6-1.373-.2-.55-.2-1.098-.2-1.647.6-.275 2-.824 3.8-1.373 2-.549 4-1.098 6.4-1.372 1.6-6.589 3.2-12.353 5.2-17.569 2-5.216 4-9.608 6.4-13.451 2.2-3.843 4.6-6.588 7.2-8.51 2.6-1.921 5-3.02 7.6-3.02.8 0 1.4 0 2.2.275.6.275 1.2.275 1.6.275.6-.55 1.4-1.098 2.2-1.647 1-.824 1.8-1.098 2.6-1.098s1.8.549 3 1.647c-.6 1.098-1 2.745-1.6 4.94-.6 2.197-1 4.118-1.4 6.04-1.8 6.588-3.4 10.706-5.2 12.627-.6 0-1-1.372-1.2-3.843 0-1.921-.2-3.568-.6-5.215-.2-.824-.4-1.373-.6-2.196 0-.55-.2-1.373-.2-2.197v-1.921c0-.824.2-1.922.4-3.569-1 0-2.2.824-3.6 2.745a54.24 54.24 0 0 0-4 7.687c-1.4 3.294-2.8 7.137-4.2 11.804s-2.8 9.607-4.2 15.098h8c.4.274.6 1.372.8 2.745.2 1.372.4 2.745.4 4.392H63.6c-2.4 9.608-4.6 18.941-6.8 28-2 8.784-4 17.02-5.6 24.431-1.6 7.412-3 14.275-4.2 20.04-.8 5.764-1.6 10.43-2.2 14z M44.5 214c2.2 5.045-9 4-9.5 4-9.72-1.811-7.5-5-8-5-1.44-6.08.5-12 0-12 2.57-12.16 6.823 11.786 12.063 2.796m65.487-95.032l-18.618 3.5c-.745.14-1.105.777-.84 1.487l2.117 5.681 5.213-.98a1.588 1.588 0 0 1 1.767.998c.264.71.024 1.135-.096 1.347s-.36.638-.732.708l-5.213.98 2.502 6.178 10.798-2.03a1.588 1.588 0 0 1 1.767.998c.132.355-.108.78-.228.992s-.36.638-.732.708l-10.68 1.817 2.383 6.391 5.213-.98a1.588 1.588 0 0 1 1.766.998c.133.355-.107.78-.227.992s-.36.638-.733.708l-5.213.98 2.502 6.178 10.799-2.03a1.588 1.588 0 0 1 1.766.998c.132.355-.108.78-.228.992s-.36.638-.732.708L98.192 148.9l2.382 6.39 5.213-.98a1.588 1.588 0 0 1 1.766.999c.133.355-.107.78-.227.992s-.36.638-.733.708l-5.213.98 2.502 6.178 10.799-2.03a1.588 1.588 0 0 1 1.766.998c.133.355-.108.78-.228.992s-.36.638-.732.708l-10.679 1.817 2.382 6.39 5.213-.98a1.588 1.588 0 0 1 1.767.998c.132.355-.108.78-.228.993s-.36.638-.733.708l-5.213.98 2.502 6.178 10.799-2.03a1.588 1.588 0 0 1 1.766.997c.133.356-.107.78-.227.993s-.36.638-.733.708l-10.679 1.817 2.382 6.39 5.213-.98a1.588 1.588 0 0 1 1.767.998c.132.355-.108.78-.228.993s-.36.637-.732.707l-5.214.98 2.118 5.681a1.588 1.588 0 0 0 1.766.998l18.619-3.5c.624.072.865-.353.985-.565s.36-.638.227-.993l-31.757-85.209c-.385-.497-1.395-1.067-2.02-1.14zm77.09 5.208c.26-.1.778-.3 1.135-.127.714.347 1.007 1.168.683 1.915l-27.543 63.525c-.324.747-1.102 1.048-1.816.7s-1.007-1.167-.683-1.914l27.543-63.525c-.098-.274.421-.474.68-.574zm-18.663-6.807c.779-.3 1.493.047 1.786.868l1.462 4.103c4.583 12.86 8.744 23.703 3.3 35.76-5.185 11.958-15.664 15.688-27.602 20.292l-3.893 1.501c-.779.3-1.493-.047-1.785-.867s.031-1.568.81-1.869l3.893-1.501c11.42-4.404 21.638-8.034 26.24-19.144 4.698-10.836.733-21.133-3.558-33.17l-1.463-4.105c-.292-.82.032-1.568.81-1.868zm-1.62 3.737l5.19-2.002c.78-.3 1.103-1.047.81-1.868l-1.95-5.472c-.292-.82-1.006-1.168-1.785-.868l-5.19 2.002c-.779.3-1.103 1.048-.81 1.869l1.95 5.471c.293.821 1.007 1.168 1.785.868zm-27.542 63.525l5.19-2.002c.779-.3 1.103-1.048.81-1.868l-1.95-5.472c-.293-.82-1.007-1.168-1.785-.868l-5.19 2.002c-.78.3-1.103 1.048-.81 1.868l1.95 5.472c.292.821 1.006 1.168 1.785.868zm44.254-62.19a6.928 7.286-4.985 1 1 12.977-5.005 6.928 7.286-4.985 1 1-12.977 5.005zm-32.403 74.735a6.928 7.286-4.985 1 1 12.977-5.004 6.928 7.286-4.985 1 1-12.977 5.004zm24.153-35.766c2.076-.8 3.21-3.416 2.43-5.605s-3.28-3.403-5.356-2.603-3.21 3.417-2.43 5.606 3.28 3.403 5.356 2.602zm-1.95-5.472c.778-.3 1.492.047 1.785.868s-.032 1.568-.81 1.868-1.493-.047-1.786-.867.032-1.568.81-1.869zm8.484-51.04a.91.91 0 0 0-.428-.526l-5.548-3.155 2.828-5.42a.862.862 0 0 0 .054-.657.973.973 0 0 0-.444-.575l-1.084-.617a.873.873 0 0 0-.656-.09.776.776 0 0 0-.5.403l-2.828 5.42-5.547-3.156a.873.873 0 0 0-.656-.09c-.24.065-.434.197-.548.415l-.552 1.06a.862.862 0 0 0-.054.656.91.91 0 0 0 .429.526l5.547 3.155-2.828 5.42a.862.862 0 0 0-.053.656.91.91 0 0 0 .428.527l1.084.616a.873.873 0 0 0 .656.09.776.776 0 0 0 .5-.402l2.811-5.388 5.548 3.155a.873.873 0 0 0 .656.09.776.776 0 0 0 .5-.402l.552-1.06a.638.638 0 0 0 .133-.65z M146.854 144.643a.597.597 0 0 0-.468.028l-3.995 1.927-1.926-3.991a.614.614 0 0 0-.348-.312.639.639 0 0 0-.502.015l-.781.377a.615.615 0 0 0-.313.349c-.06.17-.039.33.027.467l1.925 3.992-3.995 1.927a.615.615 0 0 0-.313.349c-.06.17-.062.34.015.501l.376.78a.62.62 0 0 0 .35.313c.17.059.33.038.467-.028l3.996-1.927 1.925 3.99a.611.611 0 0 0 .817.286l.78-.377a.615.615 0 0 0 .313-.349.596.596 0 0 0-.027-.467l-1.914-3.969 3.996-1.927a.615.615 0 0 0 .313-.349.596.596 0 0 0-.028-.467l-.376-.78a.462.462 0 0 0-.314-.358zm35.525 27.467a.778.778 0 0 0-.488-.322l-5.441-1.184 1.103-5.098a.702.702 0 0 0-.112-.546.828.828 0 0 0-.512-.356l-1.063-.232a.798.798 0 0 0-.576.09.679.679 0 0 0-.327.45l-1.102 5.098-5.442-1.185a.798.798 0 0 0-.576.09c-.188.112-.32.267-.364.472l-.216.996a.702.702 0 0 0 .112.546c.124.18.3.28.487.32l5.441 1.185-1.102 5.098a.702.702 0 0 0 .11.546c.125.18.3.28.488.32l1.063.232c.22.048.426 0 .576-.09a.679.679 0 0 0 .327-.45l1.096-5.068 5.442 1.184a.797.797 0 0 0 .576-.089.679.679 0 0 0 .326-.45l.216-.996a.523.523 0 0 0-.042-.562zM46.343 100.471a.6.6 0 0 0-.347.232l-2.29 3.113-3.067-1.804a.53.53 0 0 0-.392-.051.642.642 0 0 0-.378.239l-.447.608a.508.508 0 0 0-.1.377c.022.141.101.24.207.302l3.067 1.804-2.289 3.113a.508.508 0 0 0-.1.376.442.442 0 0 0 .212.33l.6.353a.53.53 0 0 0 .39.05.6.6 0 0 0 .348-.23l2.29-3.114 3.067 1.804a.53.53 0 0 0 .392.051.6.6 0 0 0 .347-.231l.447-.609a.508.508 0 0 0 .1-.376.414.414 0 0 0-.207-.302l-3.05-1.794 2.29-3.113a.508.508 0 0 0 .1-.376.414.414 0 0 0-.208-.302l-.6-.352c-.114-.12-.26-.128-.382-.098zm-21.035 77.907a.6.6 0 0 0-.416.021l-3.56 1.506-1.714-3.118a.53.53 0 0 0-.31-.244.642.642 0 0 0-.448.012l-.695.294a.508.508 0 0 0-.279.273.414.414 0 0 0 .025.365l1.714 3.118-3.559 1.506a.508.508 0 0 0-.278.273.442.442 0 0 0 .013.391l.335.61a.53.53 0 0 0 .311.244.6.6 0 0 0 .417-.022l3.559-1.505 1.714 3.118a.53.53 0 0 0 .311.244.6.6 0 0 0 .417-.022l.695-.294a.508.508 0 0 0 .279-.273.414.414 0 0 0-.025-.365l-1.704-3.1 3.559-1.506a.508.508 0 0 0 .278-.272.414.414 0 0 0-.024-.366l-.335-.61c-.038-.16-.159-.241-.28-.278zm22-30a.6.6 0 0 0-.416.021l-3.56 1.506-1.714-3.118a.53.53 0 0 0-.31-.244.642.642 0 0 0-.448.012l-.695.294a.508.508 0 0 0-.279.273.414.414 0 0 0 .025.365l1.714 3.118-3.559 1.506a.508.508 0 0 0-.278.273.442.442 0 0 0 .013.391l.335.61a.53.53 0 0 0 .311.244.6.6 0 0 0 .417-.022l3.559-1.505 1.714 3.118a.53.53 0 0 0 .311.244.6.6 0 0 0 .417-.022l.695-.294a.508.508 0 0 0 .279-.273.414.414 0 0 0-.025-.365l-1.704-3.1 3.559-1.506a.508.508 0 0 0 .278-.272.414.414 0 0 0-.024-.366l-.335-.61c-.038-.16-.159-.241-.28-.278zm7 63a.6.6 0 0 0-.416.021l-3.56 1.506-1.714-3.118a.53.53 0 0 0-.31-.244.642.642 0 0 0-.448.012l-.695.294a.508.508 0 0 0-.279.273.414.414 0 0 0 .025.365l1.714 3.118-3.559 1.506a.508.508 0 0 0-.278.273.442.442 0 0 0 .013.391l.335.61a.53.53 0 0 0 .311.244.6.6 0 0 0 .417-.022l3.559-1.505 1.714 3.118a.53.53 0 0 0 .311.244.6.6 0 0 0 .417-.022l.695-.294a.508.508 0 0 0 .279-.273.414.414 0 0 0-.025-.365l-1.704-3.1 3.559-1.506a.508.508 0 0 0 .278-.272.414.414 0 0 0-.024-.366l-.335-.61c-.038-.16-.159-.241-.28-.278zm5-35a.6.6 0 0 0-.416.021l-3.56 1.506-1.714-3.118a.53.53 0 0 0-.31-.244.642.642 0 0 0-.448.012l-.695.294a.508.508 0 0 0-.279.273.414.414 0 0 0 .025.365l1.714 3.118-3.559 1.506a.508.508 0 0 0-.278.273.442.442 0 0 0 .013.391l.335.61a.53.53 0 0 0 .311.244.6.6 0 0 0 .417-.022l3.559-1.505 1.714 3.118a.53.53 0 0 0 .311.244.6.6 0 0 0 .417-.022l.695-.294a.508.508 0 0 0 .279-.273.414.414 0 0 0-.025-.365l-1.704-3.1 3.559-1.506a.508.508 0 0 0 .278-.272.414.414 0 0 0-.024-.366l-.335-.61c-.038-.16-.159-.241-.28-.278zm26-104a.6.6 0 0 0-.417.021l-3.559 1.506-1.714-3.118a.53.53 0 0 0-.31-.244.642.642 0 0 0-.448.012l-.695.294a.508.508 0 0 0-.279.273.414.414 0 0 0 .024.365l1.715 3.118-3.559 1.506a.508.508 0 0 0-.279.273.442.442 0 0 0 .014.391l.335.61a.53.53 0 0 0 .31.244.6.6 0 0 0 .418-.022l3.558-1.505 1.715 3.118a.53.53 0 0 0 .31.244.6.6 0 0 0 .417-.022l.696-.294a.508.508 0 0 0 .279-.273.414.414 0 0 0-.025-.365l-1.705-3.1 3.56-1.506a.508.508 0 0 0 .278-.272.414.414 0 0 0-.024-.366l-.335-.61c-.038-.16-.159-.241-.28-.278zm22.627 17.818a.57.57 0 0 0-.374.226l-2.411 3.251-3.439-2.274a.61.61 0 0 0-.433-.092.612.612 0 0 0-.407.232l-.471.635a.526.526 0 0 0 .141.762l3.439 2.275-2.411 3.25a.566.566 0 0 0 .148.794l.671.445a.61.61 0 0 0 .433.092.57.57 0 0 0 .374-.227l2.411-3.25 3.438 2.274a.61.61 0 0 0 .433.091.57.57 0 0 0 .374-.226l.471-.635a.526.526 0 0 0-.141-.762l-3.419-2.262 2.411-3.25a.526.526 0 0 0-.141-.763l-.672-.444a.453.453 0 0 0-.425-.142zm-7.303 73.836a.597.597 0 0 0-.288.37l-1.188 4.274-4.27-1.187a.614.614 0 0 0-.464.056.639.639 0 0 0-.32.388l-.232.835a.615.615 0 0 0 .056.465.596.596 0 0 0 .37.288l4.269 1.187-1.188 4.274a.615.615 0 0 0 .056.465.637.637 0 0 0 .387.32l.834.232c.172.047.34.015.465-.056a.597.597 0 0 0 .288-.37l1.188-4.275 4.27 1.187c.17.048.339.015.464-.056a.597.597 0 0 0 .288-.37l.232-.835a.615.615 0 0 0-.056-.465.596.596 0 0 0-.369-.288l-4.245-1.18 1.188-4.274a.615.615 0 0 0-.056-.466.596.596 0 0 0-.37-.288l-.833-.231a.462.462 0 0 0-.476 0zm67.747-26.922a.778.778 0 0 0-.488-.322l-5.441-1.184 1.103-5.098a.702.702 0 0 0-.112-.546.828.828 0 0 0-.512-.356l-1.063-.232a.798.798 0 0 0-.576.09.679.679 0 0 0-.327.45l-1.102 5.098-5.442-1.185a.798.798 0 0 0-.576.09c-.188.112-.32.267-.364.472l-.216.996a.702.702 0 0 0 .112.546c.124.18.3.28.487.32l5.441 1.185-1.102 5.098a.702.702 0 0 0 .11.546c.125.18.3.28.488.32l1.063.232c.22.048.426 0 .576-.09a.679.679 0 0 0 .327-.45l1.096-5.068 5.442 1.184a.797.797 0 0 0 .576-.089.679.679 0 0 0 .326-.45l.216-.996a.523.523 0 0 0-.042-.562zm-16 62a.778.778 0 0 0-.488-.322l-5.441-1.184 1.103-5.098a.702.702 0 0 0-.112-.546.828.828 0 0 0-.512-.356l-1.063-.232a.798.798 0 0 0-.576.09.679.679 0 0 0-.327.45l-1.102 5.098-5.442-1.185a.798.798 0 0 0-.576.09c-.188.112-.32.267-.364.472l-.216.996a.702.702 0 0 0 .112.546c.124.18.3.28.487.32l5.441 1.185-1.102 5.098a.702.702 0 0 0 .11.546c.125.18.3.28.488.32l1.063.232c.22.048.426 0 .576-.09a.679.679 0 0 0 .327-.45l1.096-5.068 5.442 1.184a.797.797 0 0 0 .576-.089.679.679 0 0 0 .326-.45l.216-.996a.523.523 0 0 0-.042-.562zM240.68 80.383l6.891-.546-5.129 6.124a7.095 7.095 0 0 0-1.633 5.148c.222 2.81 2.653 4.917 5.418 4.698s4.833-2.683 4.61-5.494l-.106-1.353a.719.719 0 0 0-1.433.114l.107 1.353c.16 2.02-1.314 3.79-3.292 3.947s-3.712-1.359-3.872-3.38a5.736 5.736 0 0 1 1.303-4.112l6.226-7.436a.72.72 0 0 0-.606-1.177l-8.597.68c-.387.031-.69.378-.66.774s.387.69.774.66h-.002zm8.501 5.383a.72.72 0 0 0 1.212.772c.027-.042 2.81-4.263 8.423-4.708 2.956-.234 5.294.691 7.554 1.588 2.21.877 4.498 1.784 7.275 1.564 5.808-.46 9.659-3.434 9.358-7.232a.719.719 0 0 0-1.433.114c.23 2.906-3.149 5.297-8.037 5.684-1.125.09-2.163-.039-3.166-.283a.765.765 0 0 0 .078-.291l1.034-29.055a2.185 2.185 0 0 1 2.026-2.095l.906-.072a2.197 2.197 0 0 1 1.805.708c.452.495.647 1.155.536 1.815a.715.715 0 0 0 .588.828.714.714 0 0 0 .827-.589 3.568 3.568 0 0 0-.891-3.025 3.608 3.608 0 0 0-2.977-1.17l-.902.071a3.626 3.626 0 0 0-3.344 3.475L269.02 82.87a43.285 43.285 0 0 1-2.11-.789c-2.03-.805-4.123-1.634-6.694-1.719l.575-28.189a.72.72 0 0 0-.702-.737l-.072.006a.716.716 0 0 0-.66.7l-.583 28.25-.071.005c-6.348.503-9.395 5.169-9.523 5.37h.001z M264 110.952c-7.676 0-13.912-6.03-13.912-13.452S256.324 84.048 264 84.048s13.913 6.03 13.913 13.452-6.237 13.452-13.913 13.452zm0-25.977c-7.1 0-12.953 5.66-12.953 12.525S256.9 110.025 264 110.025s12.953-5.66 12.953-12.525S271.1 84.975 264 84.975zm.192 18.555h-1.343c-1.727 0-3.166-1.391-3.166-3.061v-5.103c0-1.67 1.439-3.061 3.166-3.061h1.343c1.727 0 3.166 1.391 3.166 3.061 0 .278-.191.464-.48.464s-.479-.186-.479-.464c0-1.113-.96-2.134-2.207-2.134h-1.343c-1.247 0-2.207.928-2.207 2.134v5.103c0 1.113.96 2.134 2.207 2.134h1.343c1.247 0 2.207-.928 2.207-2.134 0-.279.192-.464.48-.464s.48.185.48.464c0 1.67-1.44 3.061-3.167 3.061zm5.565-8.35c-.767 0-1.44-.649-1.44-1.391s.673-1.392 1.44-1.392 1.44.65 1.44 1.392-.672 1.392-1.44 1.392zm0-1.855c-.288 0-.48.186-.48.464s.192.464.48.464.48-.186.48-.464-.192-.464-.48-.464z"/></g>
			
	<linearGradient id="picture-gradient" x1="0" y1="0" y2="1" x2="0" >
		<stop stop-color="#ffffff" offset="0%"/>
		<stop stop-color="#934cf3" offset="100%"/>
	</linearGradient>

		</defs>

		

			<use xlink:href="#background" fill="url(#background-gradient)" />

		

			<g mask="url(#mask)">
				<g transform="
				        translate(
                                50 50
)
                            translate(0 0) rotate(355) scale(0.75)  
                            translate(
                                -50 -50
)">
					<g filter="url(#drop-shadow)">
						<use xlink:href="#picture" fill="url(#picture-gradient)"  />
					</g>
				</g>
			</g>

		



	</svg>
